<?xml version="1.0" standalone="no"?>
<!DOCTYPE svg PUBLIC "-//W3C//DTD SVG 20010904//EN"
 "http://www.w3.org/TR/2001/REC-SVG-20010904/DTD/svg10.dtd">
<svg version="1.0" xmlns="http://www.w3.org/2000/svg"
 width="500.000000pt" height="500.000000pt" viewBox="0 0 500.000000 500.000000"
 preserveAspectRatio="xMidYMid meet">

<g transform="translate(0.000000,500.000000) scale(0.100000,-0.100000)"
fill="#000000" stroke="none">
<path d="M190 2450 l0 -2200 2245 0 2245 0 0 2200 0 2200 -2245 0 -2245 0 0
-2200z m4460 0 l0 -2170 -2215 0 -2215 0 0 2170 0 2170 2215 0 2215 0 0 -2170z"/>
<path d="M925 4525 c-74 -26 -113 -102 -101 -198 11 -98 65 -152 151 -152 61
0 98 21 130 76 26 44 27 159 2 206 -35 65 -111 93 -182 68z m89 -56 c13 -7 30
-25 37 -41 26 -63 5 -176 -36 -192 -24 -9 -64 -7 -84 4 -33 17 -56 108 -41
161 20 67 67 93 124 68z"/>
<path d="M1277 4526 c-52 -19 -73 -40 -93 -92 -20 -53 -14 -139 13 -186 30
-52 68 -73 128 -73 61 0 98 21 130 76 28 48 28 160 0 209 -37 61 -112 89 -178
66z m107 -77 c26 -31 31 -54 26 -119 -4 -68 -33 -100 -86 -100 -51 0 -74 28
-88 106 -18 109 85 188 148 113z"/>
<path d="M320 4355 l0 -175 30 0 29 0 3 73 3 72 63 3 c58 3 62 4 62 27 0 24
-3 25 -66 25 l-65 0 3 48 3 47 73 3 c69 3 72 4 72 27 0 25 0 25 -105 25 l-105
0 0 -175z"/>
<path d="M580 4355 l0 -175 105 0 105 0 0 25 c0 24 -2 25 -70 25 l-70 0 0 150
0 150 -35 0 -35 0 0 -175z"/>
<path d="M1540 4355 l0 -175 30 0 c29 0 29 0 32 68 3 60 5 67 25 70 18 3 29
-9 60 -67 36 -68 39 -71 75 -71 l37 0 -40 69 -40 69 31 30 c24 24 30 39 30 72
0 82 -41 110 -165 110 l-75 0 0 -175z m158 109 c12 -8 22 -26 22 -39 0 -36
-26 -55 -76 -55 l-44 0 0 55 0 55 38 0 c21 0 48 -7 60 -16z"/>
<path d="M2485 4493 c-10 -58 -13 -63 -35 -63 -13 0 -20 -7 -20 -20 0 -13 7
-20 20 -20 13 0 20 -7 20 -19 0 -33 -11 -51 -31 -51 -12 0 -19 -7 -19 -20 0
-13 7 -20 19 -20 16 0 17 -6 13 -50 -4 -46 -3 -50 17 -50 16 0 21 6 21 28 0
53 11 72 39 72 25 0 26 -2 23 -50 -4 -45 -2 -50 17 -50 16 0 21 6 21 28 0 51
11 72 36 72 31 0 34 37 4 42 -12 2 -21 6 -20 11 0 4 0 18 0 32 0 20 5 25 25
25 18 0 25 5 25 20 0 14 -7 20 -21 20 -20 0 -21 4 -16 46 3 34 1 47 -10 51
-20 8 -26 -2 -32 -50 -5 -37 -9 -42 -35 -45 l-29 -4 7 51 c6 46 5 51 -13 51
-15 0 -22 -9 -26 -37z m85 -115 c-1 -37 -14 -58 -36 -58 -21 0 -24 5 -24 35 0
32 2 35 30 35 17 0 30 -5 30 -12z"/>
<path d="M4097 4450 c-100 -25 -193 -107 -228 -200 -44 -117 -10 -262 82 -345
71 -64 114 -80 214 -80 105 0 153 19 224 86 97 94 126 243 68 361 -32 65 -100
131 -162 159 -52 23 -146 32 -198 19z m188 -49 c182 -81 228 -327 88 -467 -60
-61 -107 -79 -203 -79 -73 0 -92 4 -135 27 -64 33 -97 69 -129 138 -76 163 19
354 199 401 43 11 132 1 180 -20z"/>
<path d="M1840 4425 c-7 -8 -10 -25 -6 -40 5 -20 13 -25 36 -25 33 0 47 27 30
60 -13 24 -42 26 -60 5z"/>
<path d="M1840 4235 c-26 -32 13 -81 48 -59 34 22 22 74 -18 74 -10 0 -23 -7
-30 -15z"/>
<path d="M1087 4076 c-77 -28 -107 -78 -107 -176 0 -70 24 -127 64 -154 41
-26 107 -31 150 -11 44 21 55 41 34 62 -14 13 -18 13 -41 -2 -16 -10 -40 -15
-63 -13 -118 10 -109 249 8 248 13 -1 34 -7 48 -15 45 -24 71 21 28 49 -36 22
-80 27 -121 12z"/>
<path d="M2457 4076 c-48 -18 -66 -41 -67 -86 0 -50 19 -72 94 -108 67 -32 88
-60 66 -87 -17 -20 -90 -19 -118 1 -21 15 -25 15 -43 -2 -18 -16 -18 -19 -3
-35 24 -27 80 -42 132 -36 83 9 129 94 86 155 -8 12 -47 38 -85 57 -47 24 -69
41 -69 53 0 42 51 55 104 27 26 -14 30 -14 42 2 19 25 17 31 -13 47 -45 22
-86 26 -126 12z"/>
<path d="M320 3906 l0 -176 30 0 29 0 3 112 3 111 34 -96 c29 -80 38 -97 55
-97 17 0 27 17 56 97 l35 96 3 -111 3 -112 29 0 30 0 0 176 0 175 -36 -3 -37
-3 -40 -114 c-23 -63 -42 -110 -44 -105 -2 5 -21 56 -42 114 l-38 105 -37 3
-36 3 0 -175z"/>
<path d="M747 3992 c-15 -48 -40 -126 -56 -174 l-29 -88 32 0 c30 0 34 4 47
48 l14 47 55 0 55 0 15 -47 c14 -45 17 -48 49 -48 22 0 32 4 28 13 -2 6 -28
85 -58 175 l-54 162 -35 0 -35 0 -28 -88z m86 -49 c8 -32 13 -61 11 -65 -3 -4
-21 -8 -41 -8 -29 0 -34 3 -30 18 3 9 11 38 18 65 7 26 16 47 19 47 4 0 14
-26 23 -57z"/>
<path d="M1290 3905 l0 -175 35 0 35 0 0 75 0 75 70 0 70 0 0 -75 0 -75 30 0
30 0 0 175 0 175 -30 0 -30 0 0 -70 0 -70 -70 0 -70 0 0 70 0 70 -35 0 -35 0
0 -175z"/>
<path d="M1640 3905 l0 -175 30 0 30 0 0 175 0 175 -30 0 -30 0 0 -175z"/>
<path d="M1780 3905 l0 -175 31 0 32 0 -6 126 -5 127 71 -127 c68 -122 72
-126 104 -126 l33 0 0 175 0 175 -30 0 -30 0 0 -127 c-1 -122 -1 -127 -16 -98
-9 17 -41 74 -71 128 -49 88 -57 97 -84 97 l-29 0 0 -175z"/>
<path d="M2120 3905 l0 -175 105 0 105 0 0 25 c0 24 -2 25 -75 25 l-75 0 0 50
0 49 63 3 c59 3 62 4 62 28 0 24 -3 25 -62 28 l-63 3 0 44 0 45 75 0 c73 0 75
1 75 25 l0 25 -105 0 -105 0 0 -175z"/>
<path d="M3315 4030 c-6 -44 -10 -50 -31 -50 -17 0 -24 -6 -24 -20 0 -14 7
-20 21 -20 17 0 20 -5 17 -32 -2 -25 -8 -34 -25 -36 -30 -4 -32 -42 -3 -42 19
0 20 -4 14 -50 -6 -46 -5 -50 14 -50 17 0 21 9 27 50 6 47 9 50 35 50 29 0 29
0 23 -50 -5 -46 -4 -50 15 -50 17 0 21 9 27 50 6 44 10 50 31 50 17 0 24 6 24
20 0 13 -7 20 -20 20 -16 0 -20 7 -20 35 0 31 3 35 25 35 18 0 25 5 25 20 0
14 -7 20 -21 20 -19 0 -20 4 -14 50 6 46 5 50 -13 50 -16 0 -22 -10 -29 -47
-7 -42 -11 -48 -33 -48 -24 0 -25 3 -22 48 3 41 1 47 -17 47 -15 0 -20 -9 -26
-50z m83 -122 c-2 -28 -8 -34 -30 -36 -26 -3 -28 -1 -28 32 0 33 2 36 31 36
28 0 30 -2 27 -32z"/>
<path d="M2682 3981 c-8 -5 -12 -21 -10 -37 3 -25 7 -29 33 -29 26 0 30 4 33
29 3 27 -10 46 -33 46 -5 0 -16 -4 -23 -9z"/>
<path d="M2677 3794 c-11 -11 -8 -62 4 -69 5 -4 21 -4 35 -1 21 6 25 12 22 39
-2 26 -8 33 -28 35 -14 2 -29 0 -33 -4z"/>
<path d="M693 3508 c-13 -16 -11 96 -12 -968 -1 -795 1 -916 14 -929 13 -13
17 -13 33 2 17 16 137 17 1637 17 1499 0 1620 -1 1637 -17 16 -15 20 -15 33
-2 13 13 15 137 15 953 0 515 -2 942 -5 947 -4 5 -656 9 -1674 9 -1323 0
-1671 -3 -1678 -12z m547 -223 l0 -175 -250 0 -250 0 0 175 0 175 250 0 250 0
0 -175z m570 0 l0 -175 -255 0 -255 0 0 175 0 175 255 0 255 0 0 -175z m520 0
l0 -175 -230 0 -230 0 0 175 0 175 230 0 230 0 0 -175z m550 0 l0 -175 -230 0
-230 0 0 175 0 175 230 0 230 0 0 -175z m570 0 l0 -175 -255 0 -255 0 0 175 0
175 255 0 255 0 0 -175z m540 0 l0 -175 -240 0 -240 0 0 175 0 175 240 0 240
0 0 -175z m-2750 -445 l0 -210 -250 0 -250 0 0 210 0 210 250 0 250 0 0 -210z
m570 0 l0 -210 -255 0 -255 0 0 210 0 210 255 0 255 0 0 -210z m520 0 l0 -210
-230 0 -230 0 0 210 0 210 230 0 230 0 0 -210z m550 0 l0 -210 -230 0 -230 0
0 210 0 210 230 0 230 0 0 -210z m570 0 l0 -210 -255 0 -255 0 0 210 0 210
255 0 255 0 0 -210z m540 0 l0 -210 -240 0 -240 0 0 210 0 210 240 0 240 0 0
-210z m-2750 -510 l0 -210 -250 0 -250 0 0 210 0 210 250 0 250 0 0 -210z
m570 0 l0 -210 -255 0 -255 0 0 210 0 210 255 0 255 0 0 -210z m520 0 l0 -210
-230 0 -230 0 0 210 0 210 230 0 230 0 0 -210z m550 0 l0 -210 -230 0 -230 0
0 210 0 210 230 0 230 0 0 -210z m570 0 l0 -210 -255 0 -255 0 0 210 0 210
255 0 255 0 0 -210z m540 0 l0 -210 -240 0 -240 0 0 210 0 210 240 0 240 0 0
-210z m-2750 -455 l0 -185 -250 0 -250 0 0 185 0 185 250 0 250 0 0 -185z
m570 0 l0 -185 -255 0 -255 0 0 185 0 185 255 0 255 0 0 -185z m520 0 l0 -185
-230 0 -230 0 0 185 0 185 230 0 230 0 0 -185z m550 0 l0 -185 -230 0 -230 0
0 185 0 185 230 0 230 0 0 -185z m570 0 l0 -185 -255 0 -255 0 0 185 0 185
255 0 255 0 0 -185z m540 0 l0 -185 -240 0 -240 0 0 185 0 185 240 0 240 0 0
-185z"/>
<path d="M965 1420 c-3 -5 -6 -199 -6 -430 0 -231 3 -425 6 -430 4 -6 519 -10
1394 -10 l1388 0 21 23 c22 23 22 26 22 418 l0 396 -23 21 -23 22 -1387 0
c-873 0 -1388 -4 -1392 -10z m2765 -430 l0 -380 -1355 0 -1355 0 0 380 0 380
1355 0 1355 0 0 -380z"/>
<path d="M3415 1194 c-16 -8 -37 -22 -45 -30 -13 -12 -12 -17 6 -34 19 -20 20
-20 58 -1 45 24 77 16 90 -22 8 -22 4 -35 -26 -79 -48 -71 -58 -92 -58 -122 0
-23 4 -26 35 -26 28 0 35 4 35 19 0 10 16 43 36 72 69 103 76 127 49 179 -29
56 -116 77 -180 44z"/>
<path d="M1205 1191 c-30 -13 -72 -59 -79 -87 -10 -40 11 -101 44 -124 16 -11
55 -32 87 -46 96 -42 115 -72 72 -115 -18 -18 -30 -21 -71 -17 -29 3 -62 14
-79 27 -29 22 -31 22 -50 5 -28 -25 -23 -46 18 -73 54 -35 154 -41 210 -13 69
35 92 116 53 180 -15 25 -41 43 -96 68 -86 40 -116 66 -107 91 16 46 74 56
135 24 36 -20 36 -20 54 0 22 25 12 44 -36 71 -36 19 -118 24 -155 9z"/>
<path d="M1502 1013 c3 -164 5 -181 26 -214 60 -98 239 -91 289 10 15 29 19
68 21 209 l4 172 -41 0 -40 0 -3 -169 c-3 -163 -4 -170 -27 -195 -18 -19 -34
-26 -60 -26 -78 1 -91 35 -91 236 l0 154 -41 0 -41 0 4 -177z"/>
<path d="M1940 965 l0 -225 110 0 c74 0 122 5 145 14 42 18 75 69 75 116 0 40
-33 100 -55 100 -20 0 -19 13 4 34 27 25 35 78 17 121 -22 51 -62 65 -191 65
l-105 0 0 -225z m194 154 c29 -14 39 -44 24 -73 -16 -31 -28 -36 -85 -36 l-53
0 0 60 0 60 45 0 c24 0 55 -5 69 -11z m42 -204 c20 -27 17 -69 -7 -91 -14 -12
-40 -19 -85 -22 l-64 -4 0 72 0 72 71 -4 c55 -3 74 -8 85 -23z"/>
<path d="M2340 965 l0 -225 42 0 41 0 -6 158 -5 157 50 -137 c48 -131 52 -138
78 -138 26 0 30 6 65 108 65 182 62 182 57 8 l-5 -156 42 0 41 0 0 226 0 225
-47 -3 -46 -3 -51 -142 c-28 -79 -53 -143 -56 -143 -3 0 -22 51 -43 113 -62
183 -59 177 -112 177 l-45 0 0 -225z"/>
<path d="M2840 965 l0 -225 40 0 40 0 0 225 0 225 -40 0 -40 0 0 -225z"/>
<path d="M2982 1158 l3 -33 68 -3 67 -3 0 -189 0 -190 40 0 40 0 0 190 0 190
65 0 65 0 0 35 0 35 -176 0 -175 0 3 -32z"/>
<path d="M3457 832 c-28 -6 -41 -50 -22 -78 33 -51 108 -9 86 48 -10 26 -33
37 -64 30z"/>
</g>
</svg>
